<?xml version="1.0" standalone="yes"?>
<svg xmlns="http://www.w3.org/2000/svg" width="516" height="190">
<path style="fill:#374151; stroke:none;" d="M0 0L0 117L1 117C16.6562 88.8785 35.7022 62.1885 52.9468 35C58.266 26.6134 65.2704 8.83324 74.0934 4.02779C78.7475 1.49292 86.842 3 92 3L136 3L136 118L157 118L157 157L136 157L136 185L88 185L88 157L0 157L0 190L243 190L243 189C215.545 186.758 193.796 165.583 184 141C163.501 89.5554 180.547 1.56673 249 1L226 0L176 0L0 0z"/>
<path style="fill:#374151; stroke:none;" d="M249 0L250 1L249 0z"/>
<path style="fill:#374151; stroke:none;" d="M250 0L250 1L264 1L250 0z"/>
<path style="fill:#374151; stroke:none;" d="M264 0L264 1C332.2 1.18816 348.748 86.1911 330.655 138C321.631 163.84 299.412 186.679 271 189L271 190L516 190L516 0L264 0z"/>
<path style="fill:#374151; stroke:none;" d="M241 1L242 2L241 1z"/>
<path style="fill:#eff3ff; stroke:none;" d="M241.729 1.56558C172.44 12.2843 156.83 114.242 196.468 163C214.883 185.652 244.018 193.047 272 188.725C341.374 178.011 356.776 74.1196 316.674 26C298.623 4.34003 268.839 -2.62813 241.729 1.56558z"/>
<path style="fill:#374151; stroke:none;" d="M243 1L244 2L243 1M269 1L270 2L269 1M271 1L272 2L271 1z"/>
<path style="fill:#374151; stroke:none;" d="M272 1L273 2L272 1z"/>
<path style="fill:#374151; stroke:none;" d="M237 2L238 3L237 2M277 2L278 3L277 2z"/>
<path style="fill:#eff3ff; stroke:none;" d="M89 157L89 185L136 185L136 157L157 157L157 118L136 118L136 3L91 3C86.0846 3 77.6684 1.40068 73.3287 4.02779C65.0195 9.05797 58.5365 25.8668 53.3079 34C41.9922 51.6017 31.0548 69.4525 19.6566 87C13.5777 96.3584 4.79786 106.557 0.843364 117C-2.22557 125.105 -0.000553344 137.394 0 146C0.000173186 148.693 -0.771761 153.124 1.02778 155.397C4.16289 159.355 18.3299 157 23 157L89 157z"/>
<path style="fill:#374151; stroke:none;" d="M232 3L233 4L232 3M281 3L282 4L281 3z"/>
<path style="fill:#eff3ff; stroke:none;" d="M358 157L447 157L447 185L494 185L494 157L515 157L515 118L494 118L494 3L451 3L432.21 3.60339L424.192 14L407.657 40L374.576 92L359.499 117L358 157z"/>
<path style="fill:#374151; stroke:none;" d="M494 3L494 118L495 118L495 38L494 3z"/>
<path style="fill:#374151; stroke:none;" d="M228 4L229 5L228 4z"/>
<path style="fill:#374151; stroke:none;" d="M283 4L284 5L283 4M71 5L72 6L71 5M226 5L227 6L226 5M287 5L288 6L287 5M221 7L222 8L221 7M292 7L293 8L292 7M428 7L429 8L428 7z"/>
<path style="fill:#374151; stroke:none;" d="M69 8L70 9L69 8z"/>
<path style="fill:#374151; stroke:none;" d="M219 8L220 9L219 8M294 8L295 9L294 8M217 9L218 10L217 9M296 9L297 10L296 9M68 10L69 11L68 10M215 10L216 11L215 10M298 10L299 11L298 10M426 10L427 11L426 10z"/>
<path style="fill:#374151; stroke:none;" d="M213 11L214 12L213 11z"/>
<path style="fill:#374151; stroke:none;" d="M301 12L302 13L301 12M66 13L67 14L66 13M210 13L211 14L210 13M302 13L303 14L302 13M424 13L425 14L424 13M304 14L305 15L304 14z"/>
<path style="fill:#374151; stroke:none;" d="M207 15L208 16L207 15z"/>
<path style="fill:#374151; stroke:none;" d="M305 15L306 16L305 15M423 15L424 16L423 15M64 16L65 17L64 16M206 16L207 17L206 16M205 17L206 18L205 17M308 17L309 18L308 17M309 18L310 19L309 18M421 18L422 19L421 18z"/>
<path style="fill:#374151; stroke:none;" d="M62 19L63 20L62 19z"/>
<path style="fill:#374151; stroke:none;" d="M310 19L311 20L310 19M311 20L312 21L311 20M61 21L62 22L61 21M312 21L313 22L312 21M419 21L420 22L419 21M313 22L314 23L313 22M314 23L315 24L314 23M59 24L60 25L59 24M315 24L316 25L315 24M417 24L418 25L417 24M197 25L198 26L197 25M316 25L317 26L316 25M196 26L197 27L196 26M416 26L417 27L416 26M57 27L58 28L57 27z"/>
<path style="fill:#374151; stroke:none;" d="M195 27L196 28L195 27z"/>
<path style="fill:#374151; stroke:none;" d="M318 28L319 29L318 28M319 29L320 30L319 29M414 29L415 30L414 29z"/>
<path style="fill:#374151; stroke:none;" d="M55 30L56 31L55 30z"/>
<path style="fill:#374151; stroke:none;" d="M193 30L194 31L193 30M320 31L321 32L320 31M54 32L55 33L54 32M321 32L322 33L321 32M412 32L413 33L412 32M191 33L192 34L191 33M322 34L323 35L322 34M52 35L53 36L52 35M323 35L324 36L323 35z"/>
<path style="fill:#374151; stroke:none;" d="M410 35L411 36L410 35z"/>
<path style="fill:#374151; stroke:none;" d="M189 36L190 37L189 36M324 37L325 38L324 37M409 37L410 38L409 37M50 38L51 39L50 38M188 38L189 39L188 38M325 39L326 40L325 39M187 40L188 41L187 40M254 40L254 41L259 41L254 40M407 40L408 41L407 40z"/>
<path style="fill:#374151; stroke:none;" d="M48 41L49 42L48 41z"/>
<path style="fill:#374151; stroke:none;" d="M247 42L247 43L252 42L247 42z"/>
<path style="fill:#374151; stroke:none;" d="M252 41.5185C240.425 44.0289 234.517 54.3493 231.64 65C226.284 84.8304 226.054 108.379 232.519 128C236.987 141.557 247.827 152.082 263 148.468C273.154 146.049 278.351 136.128 281.329 127C287.742 107.343 287.466 80.5002 280.655 61C276.335 48.6303 266.023 38.4772 252 41.5185z"/>
<path style="fill:#374151; stroke:none;" d="M262 41L263 42L262 41M326 41L327 42L326 41M186 42L187 43L186 42M265.667 42.3333L266.333 42.6667L265.667 42.3333M47 43L48 44L47 43M245 43L246 44L245 43M267.667 43.3333L268.333 43.6667L267.667 43.3333M327 43L328 44L327 43M405 43L406 44L405 43M185 44L186 45L185 44M244 44L245 45L244 44M269 44L270 45L269 44M242 45L243 46L242 45M270 45L271 46L270 45M328.333 45.6667L328.667 46.3333L328.333 45.6667M45 46L46 47L45 46M272 46L273 47L272 46z"/>
<path style="fill:#374151; stroke:none;" d="M403 46L404 47L403 46z"/>
<path style="fill:#374151; stroke:none;" d="M273.333 47.6667L273.667 48.3333L273.333 47.6667M329.333 47.6667L329.667 48.3333L329.333 47.6667M239 48L240 49L239 48M402 48L403 49L402 48M43 49L44 50L43 49M183 49L184 50L183 49M238 49L239 50L238 49M274 49L275 50L274 49M275 50L276 51L275 50z"/>
<path style="fill:#374151; stroke:none;" d="M330 50L331 51L330 50z"/>
<path style="fill:#374151; stroke:none;" d="M237 51L238 52L237 51M276 51L277 52L276 51M330 51L331 52L330 51M400 51L401 52L400 51M182.333 52.6667L182.667 53.3333L182.333 52.6667M236 52L237 53L236 52M277 53L278 54L277 53M331.333 53.6667L331.667 54.3333L331.333 53.6667M40 54L41 55L40 54M88 54C92.6654 73.5959 89 97.8595 89 118L90 118L90 71L88 54M398 54L399 55L398 54M446.667 54.3333L447.333 54.6667L446.667 54.3333z"/>
<path style="fill:#374151; stroke:none;" d="M88 55L49 118L89 118L89 75L88 55z"/>
<path style="fill:#374151; stroke:none;" d="M181 55L182 56L181 55M278 55L279 56L278 55z"/>
<path style="fill:#374151; stroke:none;" d="M446 55C435.047 75.5747 414.576 95.6516 408 118L448 118L448 55L446 55z"/>
<path style="fill:#374151; stroke:none;" d="M87 56L88 57L87 56M332.333 56.6667L332.667 57.3333L332.333 56.6667M445 56L446 57L445 56M38 57L39 58L38 57M279 57L280 58L279 57z"/>
<path style="fill:#374151; stroke:none;" d="M396 57L397 58L396 57z"/>
<path style="fill:#374151; stroke:none;" d="M444 57L445 58L444 57M85 59L86 60L85 59M180.333 59.6667L180.667 60.3333L180.333 59.6667M233 59L234 60L233 59M280.333 59.6667L280.667 60.3333L280.333 59.6667M395 59L396 60L395 59M443 59L444 60L443 59M36 60L37 61L36 60M84 60L85 61L84 60M333.333 60.6667L333.667 61.3333L333.333 60.6667M232 61L233 62L232 61M281 61L281 64L282 64L281 61M442 61L443 62L442 61M83 62L84 63L83 62M393 62L394 63L393 62M82.3333 63.6667L82.6667 64.3333L82.3333 63.6667M179.333 63.6667L179.667 64.3333L179.333 63.6667z"/>
<path style="fill:#374151; stroke:none;" d="M334 64L335 65L334 64z"/>
<path style="fill:#374151; stroke:none;" d="M440 64L441 65L440 64M33 65L34 66L33 65M231 65L232 66L231 65M282.333 65.6667L282.667 66.3333L282.333 65.6667M391 65L392 66L391 65M439 65L440 66L439 65M334 66L335 67L334 66M80 67L81 68L80 67M178 67L178 71L179 71L178 67M230 67L230 70L231 70L230 67M438 67L439 68L438 67M31 68L32 69L31 68M79 68L80 69L79 68M283 68L283 72L284 72L283 68z"/>
<path style="fill:#374151; stroke:none;" d="M389 68L390 69L389 68z"/>
<path style="fill:#374151; stroke:none;" d="M437.333 68.6667L437.667 69.3333L437.333 68.6667M335.333 69.6667L335.667 70.3333L335.333 69.6667M78 70L79 71L78 70M388 70L389 71L388 70M29 71L30 72L29 71M77 71L78 72L77 71M229 72L229 75L230 75L229 72M335 72L336 73L335 72M435 72L436 73L435 72M28 73L29 74L28 73M76 73L77 74L76 73M284.333 73.6667L284.667 74.3333L284.333 73.6667M386 73L387 74L386 73M434 73L435 74L434 73M177 74L177 79L178 79L177 74M75 75L76 76L75 75M433 75L434 76L433 75M26 76L27 77L26 76M284.333 76.6667L284.667 77.3333L284.333 76.6667M336.333 76.6667L336.667 77.3333L336.333 76.6667M384 76L385 77L384 76M432 76L433 77L432 76M73 78L74 79L73 78M228.333 78.6667L228.667 79.3333L228.333 78.6667M431 78L432 79L431 78M24 79L25 80L24 79M72 79L73 80L72 79z"/>
<path style="fill:#374151; stroke:none;" d="M382 79L383 80L382 79z"/>
<path style="fill:#374151; stroke:none;" d="M336.333 80.6667L336.667 81.3333L336.333 80.6667M430 80L431 81L430 80M71 81L72 82L71 81M228.333 81.6667L228.667 82.3333L228.333 81.6667M285 81L285 84L286 84L285 81M381 81L382 82L381 81M22 82L23 83L22 82M70 83L71 84L70 83M176 83L176 88L177 88L176 83z"/>
<path style="fill:#374151; stroke:none;" d="M228 83L229 84L228 83z"/>
<path style="fill:#374151; stroke:none;" d="M428 83L429 84L428 83M21 84L22 85L21 84M379 84L380 85L379 84M427 84L428 85L427 84M68 86L69 87L68 86M426 86L427 87L426 86M19 87L20 88L19 87M67 87L68 88L67 87M285 87L285 104L286 104L285 87M377 87L378 88L377 87M425 88L426 89L425 88M66 89L67 90L66 89M17 90L18 91L17 90M65.3333 90.6667L65.6667 91.3333L65.3333 90.6667z"/>
<path style="fill:#374151; stroke:none;" d="M375 90L376 91L375 90z"/>
<path style="fill:#374151; stroke:none;" d="M423 91L424 92L423 91M176 92L176 98L177 98L176 92M374 92L375 93L374 92M422 92L423 93L422 92M15 93L16 94L15 93M63 94L64 95L63 94M421 94L422 95L421 94M14 95L15 96L14 95M372 95L373 96L372 95M420.333 95.6667L420.667 96.3333L420.333 95.6667M61 97L62 98L61 97M12 98L13 99L12 98M60 98L61 99L60 98M370 98L371 99L370 98M418 99L419 100L418 99M59 100L60 101L59 100M10 101L11 102L10 101M58 102L59 103L58 102M176 102L176 107L177 107L176 102M416 102L417 103L416 102M367 103L368 104L367 103M415 103L416 104L415 103M8 104L9 105L8 104M56 105L57 106L56 105M285 105L285 108L286 108L285 105M414 105L415 106L414 105M55 106L56 107L55 106z"/>
<path style="fill:#374151; stroke:none;" d="M228.333 106.667L228.667 107.333L228.333 106.667z"/>
<path style="fill:#374151; stroke:none;" d="M365 106L366 107L365 106M336.333 107.667L336.667 108.333L336.333 107.667M413 107L414 108L413 107M54 108L55 109L54 108M228 108L229 109L228 108M5 109L6 110L5 109M53.3333 109.667L53.6667 110.333L53.3333 109.667M363 109L364 110L363 109M228.333 110.667L228.667 111.333L228.333 110.667M336.333 110.667L336.667 111.333L336.333 110.667M411 110L412 111L411 110M177.333 111.667L177.667 112.333L177.333 111.667M410 111L411 112L410 111M3 112L4 113L3 112M284.333 112.667L284.667 113.333L284.333 112.667M51 113L52 114L51 113M409 113L410 114L409 113M177.333 114.667L177.667 115.333L177.333 114.667M360 114L361 115L360 114M408.333 114.667L408.667 115.333L408.333 114.667M1 115L2 116L1 115z"/>
<path style="fill:#374151; stroke:none;" d="M229 115L230 116L229 115z"/>
<path style="fill:#374151; stroke:none;" d="M284 115L285 116L284 115M49 116L50 117L49 116M229.333 116.667L229.667 117.333L229.333 116.667M335 116L336 117L335 116M358 117L358 156L359 156C359 144.828 362.311 127.274 358 117z"/>
<path style="fill:#374151; stroke:none;" d="M407 117L408 118L407 117z"/>
<path style="fill:#374151; stroke:none;" d="M283 118L283 121L284 121L283 118M335.333 118.667L335.667 119.333L335.333 118.667M178 119L179 120L178 119M230 120L230 123L231 123L230 120M178 121L179 122L178 121M334 122L335 123L334 122M282 123L283 124L282 123M179 124L180 125L179 124M231 124L231 127L232 127L231 124M334 124L335 125L334 124M179 126L180 127L179 126M281 126L282 127L281 126M333.333 127.667L333.667 128.333L333.333 127.667M180 128L180 131L181 131L180 128M232.333 128.667L232.667 129.333L232.333 128.667M280 129L281 130L280 129M233 130L234 131L233 130M181 132L181 135L182 135L181 132M279 132L280 133L279 132M332 132L333 133L332 132M234 133L235 134L234 133M278 134L279 135L278 134M331.333 134.667L331.667 135.333L331.333 134.667M235 135L236 136L235 135M277 136L278 137L277 136M182 137L183 138L182 137M236 137L237 138L236 137M237 138L238 139L237 138M330 138L331 139L330 138M183 139L184 140L183 139M275 139L276 140L275 139M238 140L239 141L238 140z"/>
<path style="fill:#374151; stroke:none;" d="M274 140L275 141L274 140z"/>
<path style="fill:#374151; stroke:none;" d="M184.333 141.667L184.667 142.333L184.333 141.667M239 141L240 142L239 141M329 141L330 142L329 141M240 142L241 143L240 142M241 143L242 144L241 143M328 143L329 144L328 143M185 144L186 145L185 144M242 144L243 145L242 144M269 145L270 146L269 145M186.333 146.667L186.667 147.333L186.333 146.667M245 146L246 147L245 146M247 147L248 148L247 147M266 147L267 148L266 147M326.333 147.667L326.667 148.333L326.333 147.667M187.333 148.667L187.667 149.333L187.333 148.667z"/>
<path style="fill:#374151; stroke:none;" d="M250 148L251 149L250 148z"/>
<path style="fill:#374151; stroke:none;" d="M263 148L264 149L263 148M254 149L255 150L254 149M256 149L256 150L259 150L256 149M260 149L261 150L260 149M325.333 149.667L325.667 150.333L325.333 149.667M188.333 150.667L188.667 151.333L188.333 150.667M324 151L325 152L324 151M190 154L191 155L190 154M191.333 155.667L191.667 156.333L191.333 155.667M322 155L323 156L322 155M0 156L1 157L0 156M321 156L322 157L321 156M88 157L88 185L89 185L88 157M192 157L193 158L192 157M446 157L446 185L447 185L446 157z"/>
<path style="fill:#374151; stroke:none;" d="M494 157L494 185L495 185L494 157z"/>
<path style="fill:#374151; stroke:none;" d="M320 158L321 159L320 158M193 159L194 160L193 159M319 159L320 160L319 159M194 160L195 161L194 160M195 161L196 162L195 161M318 161L319 162L318 161M196 163L197 164L196 163M316 163L317 164L316 163M197 164L198 165L197 164M198 165L199 166L198 165M315 165L316 166L315 165M199 166L200 167L199 166M314 166L315 167L314 166M200 167L201 168L200 167M313 167L314 168L313 167M201 168L202 169L201 168M312 168L313 169L312 168M202 169L203 170L202 169M311 169L312 170L311 169M203 170L204 171L203 170M310 170L311 171L310 170M204 171L205 172L204 171M309 171L310 172L309 171M205 172L206 173L205 172M308 172L309 173L308 172M206 173L207 174L206 173M306 173L307 174L306 173M207.667 174.333L208.333 174.667L207.667 174.333M305 174L306 175L305 174M209 175L210 176L209 175M304 175L305 176L304 175M210 176L211 177L210 176M303 176L304 177L303 176M212 177L213 178L212 177M301 177L302 178L301 177M213 178L214 179L213 178M300 178L301 179L300 178M215 179L216 180L215 179M298 179L299 180L298 179M216.667 180.333L217.333 180.667L216.667 180.333M296 180L297 181L296 180M218.667 181.333L219.333 181.667L218.667 181.333M294.667 181.333L295.333 181.667L294.667 181.333M220.667 182.333L221.333 182.667L220.667 182.333M292.667 182.333L293.333 182.667L292.667 182.333M222.667 183.333L223.333 183.667L222.667 183.333M290.667 183.333L291.333 183.667L290.667 183.333M288 184L289 185L288 184M227 185L228 186L227 185M285.667 185.333L286.333 185.667L285.667 185.333M230 186L231 187L230 186M282.667 186.333L283.333 186.667L282.667 186.333M234.667 187.333L235.333 187.667L234.667 187.333M278.667 187.333L279.333 187.667L278.667 187.333M238 188L238 189L241 189L238 188M273 188L273 189L276 189L273 188M243 189L243 190L248 190L243 189M266 189L266 190L271 190L266 189z"/>
</svg>
