<svg width="114" height="130" viewBox="0 0 114 130" fill="none" xmlns="http://www.w3.org/2000/svg">
<path d="M33.21 4.55C42.0257 2.15313 51.3938 0 57 0C62.6063 0 71.9744 2.15313 80.79 4.55C89.8088 6.9875 98.9007 9.87187 104.247 11.6187C106.482 12.3569 108.464 13.7107 109.964 15.5244C111.465 17.3382 112.423 19.5385 112.729 21.8725C117.572 58.2481 106.335 85.2069 92.7013 103.041C86.9199 110.67 80.0262 117.389 72.2507 122.972C69.562 124.904 66.7133 126.603 63.7357 128.05C61.4607 129.122 59.015 130 57 130C54.985 130 52.5475 129.122 50.2644 128.05C47.2867 126.603 44.438 124.904 41.7494 122.972C33.974 117.389 27.0804 110.67 21.2988 103.041C7.66504 85.2069 -3.57183 58.2481 1.27067 21.8725C1.57688 19.5385 2.53527 17.3382 4.03574 15.5244C5.53622 13.7107 7.51791 12.3569 9.75317 11.6187C17.5141 9.07407 25.3353 6.71714 33.21 4.55Z" fill="#FFC652"/>
</svg>
